<svg xmlns="http://www.w3.org/2000/svg" data-name="Layer 1" viewBox="0 0 100 125" x="0px" y="0px"><path d="M50,35.774A17.675,17.675,0,1,0,67.674,53.448,17.694,17.694,0,0,0,50,35.774ZM61.856,49.25,48.783,61.737a2,2,0,0,1-2.8-.032l-7.415-7.416A2,2,0,0,1,41.4,51.461l6.034,6.033L59.093,46.357a2,2,0,1,1,2.763,2.893Z"/><path d="M66.147,11.9v4.527a2,2,0,0,1-2,2H35.853a2,2,0,0,1-2-2V11.9H17.3V95H82.7V11.9ZM27.068,41.576a2,2,0,0,1-4,0V40.5a2,2,0,0,1,4,0Zm0-9.613a2,2,0,0,1-4,0V20.4a2,2,0,0,1,4,0ZM50,75.123A21.675,21.675,0,1,1,71.674,53.448,21.7,21.7,0,0,1,50,75.123Z"/><rect x="37.853" y="5" width="24.294" height="9.424"/></svg>