<svg xmlns="http://www.w3.org/2000/svg" data-name="Layer 1" viewBox="0 0 64 80" x="0px" y="0px"><path d="M32,13.9699707c-5.789978,0-10.5,4.7000122-10.5,10.4899902,0,5.7900391,4.710022,10.5,10.5,10.5s10.5-4.7099609,10.5-10.5c0-5.789978-4.710022-10.4899902-10.5-10.4899902Z"/><path d="M32,2C15.460022,2,2,15.4599609,2,32c0,7.8900146,3.039978,15.3399658,8.5599976,20.9799805,5.6799927,5.8200073,13.2999878,9.0200195,21.4400024,9.0200195s15.7600098-3.2000122,21.4400024-9.0200195c5.5200195-5.6400146,8.5599976-13.0899658,8.5599976-20.9799805,0-16.5400391-13.460022-30-30-30Zm21.6799927,47.7199707c-.5800171-7.1199951-6.5700073-12.7399902-13.8399658-12.7399902h-15.6800537c-7.2699585,0-13.2599487,5.6199951-13.8399658,12.7399902-4.0900269-4.9799805-6.3200073-11.1900024-6.3200073-17.7199707,0-15.4400024,12.5599976-28,28-28s28,12.5599976,28,28c0,6.5299683-2.2299805,12.7399902-6.3200073,17.7199707Z"/><text x="0" y="84" fill="#000000" font-size="5px" font-weight="bold" font-family="'Helvetica Neue', Helvetica, Arial-Unicode, Arial, Sans-serif">from the Noun Project</text></svg>